<svg xmlns="http://www.w3.org/2000/svg" viewBox="0 0 64 64" width="64" height="64">
  <defs>
    <linearGradient id="ember" x1="0" y1="0" x2="1" y2="1">
      <stop offset="0%" stop-color="#F7CE7E" />
      <stop offset="55%" stop-color="#DE8F1E" />
      <stop offset="100%" stop-color="#B8710F" />
    </linearGradient>
  </defs>

  <rect width="64" height="64" rx="16" fill="#0B0A0C" />
  <rect x="3" y="3" width="58" height="58" rx="14" fill="url(#ember)" />

  <!-- Llama: misma silueta que el icono de la barra superior. -->
  <path
    fill="#0B0A0C"
    d="M35.4 12.5c.7 6.3-3.4 9.1-3.4 13.6 0 1.9.9 3.3 2.4 4.3-.4-3.5 1.6-5.6 3.9-8 1.2 2.6 3.2 5.2 3.2 9.6 0 7.2-5.4 12.5-12.9 12.5S15.6 39.2 15.6 32c0-9.6 8.2-13.6 19.8-19.5Z"
  />
  <path
    fill="#0B0A0C"
    opacity=".55"
    d="M32 45.8c-3.6 0-6.4-2.5-6.4-6 0-4.2 3.7-6 7.6-7.6-.5 2.6.9 3.9 2.2 5.1.3 1.6 2.9 2.4 2.9 5.1 0 2.1-1.7 3.4-3.4 3.4h-2.9Z"
  />
</svg>
